<svg id="Layer_1" xmlns="http://www.w3.org/2000/svg" width="200" height="42.4" viewBox="0 0 200 42.4"><style>.st0{fill:#899B9F;}</style><path class="st0" d="M21.2 42.4C9.5 42.4 0 32.9 0 21.2S9.5 0 21.2 0s21.2 9.5 21.2 21.2-9.5 21.2-21.2 21.2zm6.6-39.3c-10-3.6-21 1.5-24.7 11.5s1.5 21 11.5 24.7c10 3.6 21-1.5 24.7-11.5 3.6-10-1.6-21.1-11.5-24.7z"/><path class="st0" d="M17.6 13.4l13.5 7.8L17.6 29V13.4m-1.8-3.2v21.9l19-10.9-19-11z"/><path class="st0" d="M13.2 15.8l9.4 5.4-9.4 5.4V15.8m-1.8-3.2v17.1l14.8-8.6-14.8-8.5z"/><g><path class="st0" d="M58 21.4c1.5 0 2.5-.8 2.5-2 0-1.3-1-2-2.5-2h-2.3v4.1H58zm-4.3-5.9h4.5c2.7 0 4.3 1.5 4.3 3.8 0 2.6-2.1 3.9-4.6 3.9h-2.3v3.7h-2V15.5zM67.5 15.5h2v9.6h6v1.8h-8zM80 22.1v-6.6h2V22c0 2.1 1.1 3.3 2.9 3.3 1.8 0 2.9-1.1 2.9-3.2v-6.6h2V22c0 3.4-1.9 5.1-4.9 5.1-3 0-4.9-1.7-4.9-5M100.4 21.1c1.4 0 2.3-.8 2.3-1.9 0-1.2-.9-1.9-2.4-1.9h-2.9v3.8h3zm-4.9-5.6h5.1c1.4 0 2.6.4 3.3 1.1.6.6.9 1.5.9 2.5 0 1.9-1.1 3-2.7 3.5l3.1 4.3h-2.4l-2.8-4h-2.5v4h-2V15.5zM117.1 22.4l-2-4.6-2 4.6h4zm-2.9-7h1.9l5 11.5H119l-1.2-2.8h-5.4l-1.2 2.8h-2.1l5.1-11.5zM126 15.5h2v9.6h6v1.8h-8zM138.3 25.2l1.2-1.4c1.1.9 2.2 1.5 3.6 1.5 1.2 0 2-.6 2-1.4 0-.8-.5-1.3-2.6-1.7-2.4-.6-3.8-1.3-3.8-3.4 0-2 1.6-3.3 3.9-3.3 1.7 0 3 .5 4.1 1.4l-1.1 1.5c-1-.8-2.1-1.2-3.1-1.2-1.2 0-1.9.6-1.9 1.4 0 .9.5 1.3 2.7 1.8 2.4.6 3.7 1.5 3.7 3.3 0 2.1-1.7 3.4-4.1 3.4-1.6 0-3.3-.6-4.6-1.9M152.5 15.5h2v11.4h-2zM160 21.2c0-3.2 2.4-5.9 5.9-5.9 2 0 3.2.6 4.4 1.6l-1.3 1.5c-.9-.8-1.7-1.2-3.2-1.2-2.1 0-3.7 1.8-3.7 4 0 2.3 1.5 4.1 3.9 4.1 1.1 0 2.1-.3 2.8-.9v-2.1h-2.9v-1.7h4.9v4.8c-1.1 1-2.7 1.8-4.8 1.8-3.6-.1-6-2.6-6-6M176.2 15.5h2v4.7h5.5v-4.7h2v11.4h-2v-4.8h-5.5v4.8h-2zM190.7 15.5v1.8h3.7v9.6h2v-9.6h3.6v-1.8z"/></g></svg>