<svg xmlns="http://www.w3.org/2000/svg" width="305" height="58.2" viewBox="-147 271.8 305 58.2" enable-background="new -147 271.8 305 58.2"><style type="text/css">.st0{fill:#899B9F;}</style><path class="st0" d="M-61.6 306.4c-4.7 0-7.6-2.8-7.6-8.7s2.9-8.7 7.6-8.7c1.7 0 3.5.5 5 1.5l2.9-5.6c-2.5-1.3-5.4-2.1-8.4-2.1-8.9 0-15.2 5.4-15.2 14.8s6.4 14.8 15.2 14.8c2.5 0 5-.6 7.3-1.5l-2.9-5.5c-1.2.7-2.6 1-3.9 1zm127.4-9.6c1.2 0 2.3.4 3.1 1.3l1.7-4.8c-1.8-1.1-3.9-1.6-6.2-1.6-6.1 0-11 3.8-11 10.4 0 6.5 4.9 10.4 11 10.4 2.3 0 4.5-.6 6.2-1.6l-1.7-4.8c-.8.8-1.9 1.3-3.1 1.3-2.5 0-4.6-1.5-4.6-5.2.1-3.9 2.1-5.4 4.6-5.4zm-108.6-5.2c-6.1 0-11 3.8-11 10.4 0 6.5 4.9 10.4 11 10.4s11-3.8 11-10.4c0-6.5-5-10.4-11-10.4zm0 16.2c-1.7 0-3.2-2.1-3.2-5.8 0-3.7 1.4-5.8 3.2-5.8 1.7 0 3.2 2.1 3.2 5.8-.1 3.7-1.5 5.8-3.2 5.8zm152.1-16.2c-6.1 0-11 3.8-11 10.4 0 6.5 4.9 10.4 11 10.4s11-3.8 11-10.4c0-6.5-4.9-10.4-11-10.4zm0 16.2c-1.7 0-3.2-2.1-3.2-5.8 0-3.7 1.4-5.8 3.2-5.8 1.7 0 3.2 2.1 3.2 5.8 0 3.7-1.4 5.8-3.2 5.8zm24.4-16.2c-6.1 0-11 3.8-11 10.4 0 6.5 4.9 10.4 11 10.4s11-3.8 11-10.4c0-6.5-4.9-10.4-11-10.4zm0 16.2c-1.7 0-3.2-2.1-3.2-5.8 0-3.7 1.4-5.8 3.2-5.8 1.7 0 3.2 2.1 3.2 5.8 0 3.7-1.4 5.8-3.2 5.8zm-124.9-.3c-1.9 0-3.1-1.1-3.6-3.2 6.5.2 10.6-2.5 10.6-6.4 0-3.8-3.5-6.3-7.7-6.3-6.1 0-11 3.8-11 10.4 0 6.5 4.4 10.4 10.4 10.4 5.8 0 9.2-4.4 9.2-4.4l-2-3.3s-2.9 2.8-5.9 2.8zm-.7-11.4c1.1 0 1.7 1 1.7 1.9 0 1.8-1.2 2.8-4.8 3 .2-3.1 1.5-4.9 3.1-4.9zm-15.8 8.5v-22.4h-7.5v12.6c-1.5-2.1-3.7-3.2-6.1-3.2-4.5 0-8.1 3.8-8.1 10.4 0 6.5 3.6 10.4 8.1 10.4 2.7 0 5.1-1.4 6.5-3.9 1 2.8 3.3 3.9 5.8 3.9 2.6 0 3.8-.7 3.8-.7l.5-5.4c.1-.1-3 1.7-3-1.7zm-10.6 2.9c-1.7 0-3.2-2-3.2-5.6 0-3.5 1.4-5.6 3.2-5.6 1.7 0 3.2 2 3.2 5.6-.1 3.6-1.5 5.6-3.2 5.6zm111.7-2.9v-7.5c0-3.3-1.2-5.5-4.7-5.5-2.9 0-5.4 1.4-6.8 3.9v-13.3h-7.5v29.5h7.5v-7.1c0-6.5 2-8.3 3.2-8.3.8 0 1.2.6 1.2 1.9v7c0 5.1 2.9 7 6.2 7 2.6 0 3.8-.7 3.8-.7l.5-5.4c-.1.1-3.4 1.7-3.4-1.5zm61.5 0v-22.4h-7.5v23.2c0 5.1 3 7 6.3 7 2.6 0 3.8-.7 3.8-.7l.5-5.4c0-.1-3.1 1.7-3.1-1.7zm-111.7-10.2c-4.6-1.7-5.6-2.1-5.6-3.7 0-1.5 1-2.3 2.5-2.3 3.7 0 8.3 2.5 8.3 2.5l2.1-4.9s-3.4-3.1-9.9-3.1c-7 0-10.6 3.7-10.6 8.6 0 3.6 1.8 6.9 7.6 8.8 4.5 1.5 5.4 2.5 5.4 4 0 1.8-1.3 2.6-3.4 2.6-4.2 0-9.1-3.2-9.1-3.2l-2.5 5s5 4 11.6 4c7.4 0 11.3-3.7 11.3-9.2-.1-4.2-1.1-6.7-7.7-9.1zM-116.6 284.6v7.1l8.1 7.6-8.1 7.5v7.1l15.5-14.6-15.5-14.7zm-5.9 22.2l-8.1-7.5 8.1-7.6v-7.1l-15.5 14.7 15.5 14.6v-7.1zM-119.5 271.8c-15.2 0-27.5 12.3-27.5 27.5s12.3 27.5 27.5 27.5 27.5-12.3 27.5-27.5-12.4-27.5-27.5-27.5zm0 50c-12.5 0-22.6-10.1-22.6-22.5 0-12.5 10.1-22.6 22.6-22.6s22.5 10.1 22.5 22.6c0 12.4-10.1 22.5-22.5 22.5zM27.6 326.3c0-1.4 1-2 2.5-2 .6 0 1.1.1 1.5.3v-.1c0-.7-.5-1.1-1.3-1.1-.7 0-1.2.1-1.7.3l-.4-1.4c.7-.3 1.4-.5 2.4-.5s1.7.3 2.1.7c.5.5.7 1.2.7 2v3.6h-1.7v-.7c-.4.5-1 .8-1.9.8-1.3 0-2.2-.7-2.2-1.9zm4-.4v-.3c-.3-.1-.7-.2-1.1-.2-.8 0-1.2.3-1.2.9 0 .5.4.8 1 .8.8-.1 1.3-.6 1.3-1.2zm6.9-5.9h3.3c1.9 0 3.1 1.2 3.1 2.8 0 1.9-1.5 2.9-3.3 2.9h-1.4v2.4h-1.8l.1-8.1zm3.2 4.1c.9 0 1.4-.5 1.4-1.2 0-.8-.6-1.2-1.5-1.2h-1.4v2.5l1.5-.1zm4.5-4.5h1.8v8.5h-1.8v-8.5zm3.4 6.3v-4h1.8v3.5c0 .8.4 1.3 1.1 1.3s1.1-.4 1.1-1.3v-3.5h1.8v6.2h-1.8v-.9c-.4.5-.9 1-1.8 1-1.4 0-2.2-.9-2.2-2.3zm7.3-4h1.8v1.3c.4-.9.9-1.4 2-1.4v1.9h-.1c-1.2 0-1.9.7-1.9 2.2v2.3h-1.8v-6.3zm4.2 4.4c0-1.4 1-2 2.5-2 .6 0 1.1.1 1.5.3v-.1c0-.7-.5-1.1-1.3-1.1-.7 0-1.2.1-1.7.3l-.4-1.4c.7-.3 1.4-.5 2.4-.5s1.7.3 2.1.7c.5.5.7 1.2.7 2v3.6h-1.7v-.7c-.4.5-1 .8-1.9.8-1.2 0-2.2-.7-2.2-1.9zm4.1-.4v-.3c-.3-.1-.7-.2-1.1-.2-.8 0-1.2.3-1.2.9 0 .5.4.8 1 .8.7-.1 1.3-.6 1.3-1.2zm3.2-6.3h1.8v8.5h-1.8v-8.5zm3 7.7l.8-1.2c.7.5 1.4.7 2 .7.5 0 .7-.2.7-.5 0-.4-.6-.5-1.3-.7-.9-.3-1.9-.7-1.9-1.9 0-1.3 1-2 2.3-2 .8 0 1.7.3 2.3.7l-.7 1.2c-.6-.4-1.2-.6-1.7-.6-.4 0-.7.2-.7.4 0 .3.6.5 1.3.7.9.3 1.9.7 1.9 1.9 0 1.4-1 2-2.4 2-.8.2-1.8-.1-2.6-.7zm6.4-7.7h1.9v1.6h-1.9v-1.6zm0 2.3h1.8v6.2h-1.8v-6.2zm3.5 7.4l.6-1.3c.6.4 1.3.6 2.1.6 1.2 0 1.8-.6 1.8-1.7v-.3c-.5.6-1.1 1-2 1-1.5 0-2.8-1.1-2.8-2.9 0-1.9 1.3-2.9 2.8-2.9 1 0 1.5.4 2 .9v-.8h1.8v4.8c0 1.1-.3 1.9-.8 2.5-.6.6-1.5.8-2.7.8-1.1 0-2-.2-2.8-.7zm4.5-4.6c0-.9-.7-1.5-1.5-1.5-.9 0-1.5.6-1.5 1.4 0 .9.7 1.4 1.5 1.4.8.1 1.5-.5 1.5-1.3zm3.3-5.1h1.8v3.1c.4-.5.9-1 1.8-1 1.3 0 2.1.9 2.1 2.3v4h-1.8v-3.5c0-.8-.4-1.3-1.1-1.3-.7 0-1.1.4-1.1 1.3v3.5h-1.8v-8.4h.1zm7.6 6.7v-3h-.7v-1.5h.7v-1.6h1.8v1.6h1.5v1.5h-1.5v2.7c0 .4.2.6.6.6.3 0 .6-.1.9-.2v1.4c-.4.2-.8.4-1.4.4-1.2 0-1.9-.4-1.9-1.9zm7.7-1.3c0-1.8 1.4-3.3 3.3-3.3 1.2 0 1.9.4 2.5 1l-1.1 1.2c-.4-.4-.8-.7-1.4-.7-.9 0-1.5.8-1.5 1.7 0 1 .6 1.7 1.6 1.7.6 0 1-.3 1.4-.7l1 1c-.6.7-1.3 1.1-2.6 1.1-1.8.2-3.2-1.2-3.2-3zm6.5 0c0-1.8 1.4-3.3 3.4-3.3 1.9 0 3.4 1.4 3.4 3.2 0 1.8-1.4 3.3-3.4 3.3s-3.4-1.4-3.4-3.2zm5 0c0-.9-.7-1.7-1.6-1.7-1 0-1.6.8-1.6 1.7 0 .9.7 1.7 1.6 1.7 1 0 1.6-.8 1.6-1.7zm3-3.1h1.8v.9c.4-.5.9-1 1.8-1 .8 0 1.4.4 1.8 1 .5-.6 1.2-1 2.1-1 1.3 0 2.1.8 2.1 2.3v4.1h-1.8v-3.5c0-.8-.4-1.3-1-1.3-.7 0-1.1.4-1.1 1.3v3.5h-1.8v-3.5c0-.8-.4-1.3-1-1.3-.7 0-1.1.4-1.1 1.3v3.5h-1.8v-6.3zm11.1 0h1.8v.9c.4-.6 1-1 1.9-1 1.5 0 2.8 1.1 2.8 3.2s-1.4 3.2-2.8 3.2c-.9 0-1.5-.4-1.9-.9v2.7h-1.8v-8.1zm4.8 3.1c0-1.1-.7-1.7-1.5-1.7s-1.5.7-1.5 1.7.7 1.7 1.5 1.7 1.5-.7 1.5-1.7zm2.7 1.3c0-1.4 1-2 2.5-2 .6 0 1.1.1 1.5.3v-.1c0-.7-.5-1.1-1.3-1.1-.7 0-1.2.1-1.7.3l-.4-1.4c.7-.3 1.4-.5 2.4-.5s1.7.3 2.1.7c.5.5.7 1.2.7 2v3.6h-1.7v-.7c-.4.5-1 .8-1.9.8-1.3 0-2.2-.7-2.2-1.9zm4-.4v-.3c-.3-.1-.7-.2-1.1-.2-.8 0-1.2.3-1.2.9 0 .5.4.8 1 .8.8-.1 1.3-.6 1.3-1.2zm3.2-4h1.8v.9c.4-.5.9-1 1.8-1 1.3 0 2.1.9 2.1 2.3v4h-1.8v-3.5c0-.8-.4-1.3-1.1-1.3s-1.1.4-1.1 1.3v3.5h-1.8v-6.2h.1zm7 7.7l.6-1.3c.2.1.5.2.8.2s.5-.1.6-.4l-2.4-6.3h1.9l1.4 4.3 1.4-4.3h1.8l-2.4 6.4c-.5 1.3-1 1.7-2.1 1.7-.6.1-1.1-.1-1.6-.3z"/></svg>